<svg width="30" height="30" viewBox="0 0 30 30" fill="none" xmlns="http://www.w3.org/2000/svg">
<path d="M12.0884 5.17019C12.1573 4.44561 12.4938 3.77275 13.0323 3.28304C13.5707 2.79333 14.2724 2.52197 15.0003 2.52197C15.7281 2.52197 16.4298 2.79333 16.9683 3.28304C17.5067 3.77275 17.8433 4.44561 17.9121 5.17019C17.9535 5.63826 18.1071 6.08946 18.3598 6.48561C18.6125 6.88177 18.957 7.2112 19.364 7.44604C19.771 7.68087 20.2286 7.81419 20.698 7.83471C21.1675 7.85524 21.635 7.76236 22.0609 7.56394C22.7223 7.26366 23.4717 7.22021 24.1634 7.44205C24.8551 7.66388 25.4394 8.13513 25.8028 8.76407C26.1662 9.39301 26.2825 10.1347 26.1292 10.8447C25.9759 11.5547 25.5639 12.1822 24.9734 12.6052C24.5889 12.875 24.275 13.2334 24.0583 13.6502C23.8416 14.067 23.7285 14.5298 23.7285 14.9996C23.7285 15.4693 23.8416 15.9321 24.0583 16.3489C24.275 16.7657 24.5889 17.1241 24.9734 17.3939C25.5639 17.8169 25.9759 18.4445 26.1292 19.1545C26.2825 19.8645 26.1662 20.6061 25.8028 21.2351C25.4394 21.864 24.8551 22.3352 24.1634 22.5571C23.4717 22.7789 22.7223 22.7355 22.0609 22.4352C21.635 22.2368 21.1675 22.1439 20.698 22.1644C20.2286 22.1849 19.771 22.3183 19.364 22.5531C18.957 22.7879 18.6125 23.1174 18.3598 23.5135C18.1071 23.9097 17.9535 24.3609 17.9121 24.8289C17.8433 25.5535 17.5067 26.2264 16.9683 26.7161C16.4298 27.2058 15.7281 27.4772 15.0003 27.4772C14.2724 27.4772 13.5707 27.2058 13.0323 26.7161C12.4938 26.2264 12.1573 25.5535 12.0884 24.8289C12.0471 24.3607 11.8935 23.9093 11.6407 23.513C11.3879 23.1167 11.0434 22.7872 10.6362 22.5523C10.229 22.3175 9.77123 22.1842 9.30162 22.1638C8.83201 22.1434 8.3644 22.2365 7.9384 22.4352C7.27701 22.7355 6.52756 22.7789 5.8359 22.5571C5.14424 22.3352 4.55986 21.864 4.1965 21.2351C3.83314 20.6061 3.71679 19.8645 3.8701 19.1545C4.0234 18.4445 4.4354 17.8169 5.0259 17.3939C5.41042 17.1241 5.72431 16.7657 5.94101 16.3489C6.15771 15.9321 6.27084 15.4693 6.27084 14.9996C6.27084 14.5298 6.15771 14.067 5.94101 13.6502C5.72431 13.2334 5.41042 12.875 5.0259 12.6052C4.43623 12.182 4.02496 11.5547 3.87202 10.8452C3.71909 10.1357 3.83541 9.39461 4.19838 8.76608C4.56135 8.13755 5.14504 7.66641 5.83601 7.44424C6.52698 7.22207 7.27588 7.26473 7.93715 7.56394C8.3631 7.76236 8.83058 7.85524 9.30002 7.83471C9.76947 7.81419 10.2271 7.68087 10.6341 7.44604C11.0411 7.2112 11.3855 6.88177 11.6382 6.48561C11.8909 6.08946 12.0445 5.63826 12.0859 5.17019" stroke="#FFFFFF" stroke-width="1.8" stroke-linecap="round" stroke-linejoin="round"/>
<path d="M15 18.75C17.0711 18.75 18.75 17.0711 18.75 15C18.75 12.9289 17.0711 11.25 15 11.25C12.9289 11.25 11.25 12.9289 11.25 15C11.25 17.0711 12.9289 18.75 15 18.75Z" stroke="#FFFFFF" stroke-width="1.8" stroke-linecap="round" stroke-linejoin="round"/>
</svg>
