<svg width="30" height="30" viewBox="0 0 30 30" fill="none" xmlns="http://www.w3.org/2000/svg">
<path d="M15 27.5C11.6848 27.5 8.50537 26.183 6.16117 23.8388C3.81696 21.4946 2.5 18.3152 2.5 15C2.5 11.6848 3.81696 8.50537 6.16117 6.16117C8.50537 3.81696 11.6848 2.5 15 2.5C18.3152 2.5 21.4946 3.68526 23.8388 5.79505C26.183 7.90483 27.5 10.7663 27.5 13.75C27.5 15.4076 26.8415 16.9973 25.6694 18.1694C24.4973 19.3415 22.9076 20 21.25 20H18.4375C18.0313 20 17.633 20.1131 17.2875 20.3267C16.9419 20.5403 16.6626 20.8459 16.4809 21.2092C16.2993 21.5726 16.2224 21.9793 16.2588 22.3839C16.2953 22.7886 16.4438 23.175 16.6875 23.5L17.0625 24C17.3062 24.325 17.4547 24.7114 17.4912 25.1161C17.5276 25.5207 17.4507 25.9274 17.2691 26.2908C17.0874 26.6541 16.8081 26.9597 16.4625 27.1733C16.117 27.3869 15.7187 27.5 15.3125 27.5H15Z" stroke="black" stroke-width="1.8" stroke-linecap="round" stroke-linejoin="round"/>
<path d="M16.875 8.75C17.2202 8.75 17.5 8.47018 17.5 8.125C17.5 7.77982 17.2202 7.5 16.875 7.5C16.5298 7.5 16.25 7.77982 16.25 8.125C16.25 8.47018 16.5298 8.75 16.875 8.75Z" fill="black" stroke="black" stroke-width="1.8" stroke-linecap="round" stroke-linejoin="round"/>
<path d="M21.875 13.75C22.2202 13.75 22.5 13.4702 22.5 13.125C22.5 12.7798 22.2202 12.5 21.875 12.5C21.5298 12.5 21.25 12.7798 21.25 13.125C21.25 13.4702 21.5298 13.75 21.875 13.75Z" fill="black" stroke="black" stroke-width="1.8" stroke-linecap="round" stroke-linejoin="round"/>
<path d="M8.125 16.25C8.47018 16.25 8.75 15.9702 8.75 15.625C8.75 15.2798 8.47018 15 8.125 15C7.77982 15 7.5 15.2798 7.5 15.625C7.5 15.9702 7.77982 16.25 8.125 16.25Z" fill="black" stroke="black" stroke-width="1.8" stroke-linecap="round" stroke-linejoin="round"/>
<path d="M10.625 10C10.9702 10 11.25 9.72018 11.25 9.375C11.25 9.02982 10.9702 8.75 10.625 8.75C10.2798 8.75 10 9.02982 10 9.375C10 9.72018 10.2798 10 10.625 10Z" fill="black" stroke="black" stroke-width="1.8" stroke-linecap="round" stroke-linejoin="round"/>
</svg>
