<svg width="30" height="30" viewBox="0 0 30 30" fill="none" xmlns="http://www.w3.org/2000/svg">
<path d="M7.5 18.7503H5C4.66848 18.7503 4.35054 18.6186 4.11612 18.3842C3.8817 18.1497 3.75 17.8318 3.75 17.5003V12.5003C3.75 12.1688 3.8817 11.8508 4.11612 11.6164C4.35054 11.382 4.66848 11.2503 5 11.2503H7.5L11.875 5.62527C11.9843 5.41306 12.1658 5.24692 12.3869 5.15689C12.6079 5.06685 12.8539 5.05885 13.0803 5.13432C13.3068 5.2098 13.4987 5.36379 13.6215 5.56845C13.7444 5.77311 13.7899 6.01495 13.75 6.25027V23.7503C13.7899 23.9856 13.7444 24.2274 13.6215 24.4321C13.4987 24.6368 13.3068 24.7907 13.0803 24.8662C12.8539 24.9417 12.6079 24.9337 12.3869 24.8437C12.1658 24.7536 11.9843 24.5875 11.875 24.3753L7.5 18.7503Z" stroke="black" stroke-width="2.3" stroke-linecap="round" stroke-linejoin="round"/>
<path d="M20 12.5L25 17.5M25 12.5L20 17.5" stroke="black" stroke-width="2.3" stroke-linecap="round" stroke-linejoin="round"/>
</svg>
